<svg width="65" height="46" viewBox="0 0 65 46" fill="none" xmlns="http://www.w3.org/2000/svg">
<path d="M14.2838 17.1914C17.096 17.1914 19.845 18.0253 22.1833 19.5877C24.5215 21.1501 26.344 23.3707 27.4202 25.9689C28.4963 28.567 28.7779 31.4259 28.2293 34.1841C27.6807 36.9423 26.3265 39.4758 24.3379 41.4643C22.3494 43.4529 19.8159 44.8071 17.0577 45.3557C14.2995 45.9043 11.4406 45.6228 8.84247 44.5466C6.24433 43.4704 4.02367 41.6479 2.46129 39.3097C0.898915 36.9714 0.065 34.2224 0.065 31.4102L0 29.3789C0 21.8368 2.99608 14.6036 8.32915 9.27056C13.6622 3.93749 20.8954 0.941406 28.4375 0.941406V9.06641C25.7689 9.05923 23.1253 9.58117 20.6596 10.602C18.1939 11.6229 15.955 13.1224 14.0725 15.0139C13.3407 15.7441 12.6657 16.5291 12.0534 17.362C12.782 17.2456 13.5241 17.1873 14.2797 17.1873L14.2838 17.1914ZM50.8462 17.1914C53.6585 17.1914 56.4075 18.0253 58.7458 19.5877C61.084 21.1501 62.9065 23.3707 63.9827 25.9689C65.0588 28.567 65.3404 31.4259 64.7918 34.1841C64.2432 36.9423 62.889 39.4758 60.9004 41.4643C58.9119 43.4529 56.3784 44.8071 53.6202 45.3557C50.862 45.9043 48.0031 45.6228 45.405 44.5466C42.8068 43.4704 40.5862 41.6479 39.0238 39.3097C37.4614 36.9714 36.6275 34.2224 36.6275 31.4102L36.5625 29.3789C36.5625 21.8368 39.5586 14.6036 44.8917 9.27056C50.2247 3.93749 57.4579 0.941406 65 0.941406V9.06641C62.3314 9.05923 59.6878 9.58117 57.2221 10.602C54.7564 11.6229 52.5175 13.1224 50.635 15.0139C49.9032 15.7441 49.2282 16.5291 48.6159 17.362C49.3445 17.2456 50.0879 17.1914 50.8462 17.1914Z" fill="white"/>
</svg>
